<?xml version="1.0" encoding="UTF-8" standalone="no"?>
<svg
   id="svg24"
   version="1.1"
   viewBox="0 0 100 17"
   height="17"
   width="100"
   sodipodi:docname="LS.svg"
   inkscape:version="1.1 (c68e22c387, 2021-05-23)"
   xmlns:inkscape="http://www.inkscape.org/namespaces/inkscape"
   xmlns:sodipodi="http://sodipodi.sourceforge.net/DTD/sodipodi-0.dtd"
   xmlns="http://www.w3.org/2000/svg"
   xmlns:svg="http://www.w3.org/2000/svg"
   xmlns:rdf="http://www.w3.org/1999/02/22-rdf-syntax-ns#"
   xmlns:cc="http://creativecommons.org/ns#"
   xmlns:dc="http://purl.org/dc/elements/1.1/">
  <defs
     id="defs8" />
  <sodipodi:namedview
     id="namedview6"
     pagecolor="#ffffff"
     bordercolor="#111111"
     borderopacity="1"
     inkscape:pageshadow="0"
     inkscape:pageopacity="0"
     inkscape:pagecheckerboard="1"
     showgrid="false"
     height="17px"
     inkscape:zoom="11.313709"
     inkscape:cx="20.594484"
     inkscape:cy="10.253048"
     inkscape:window-width="1600"
     inkscape:window-height="878"
     inkscape:window-x="-8"
     inkscape:window-y="-8"
     inkscape:window-maximized="1"
     inkscape:current-layer="svg24" />
  <title
     id="title32">Sinovac logo</title>
  <g
     id="#231815ff"
     transform="matrix(0.41727684,0,0,0.41727684,-32.201042,10.17658)" />
  <metadata
     id="metadata2349">
    <rdf:RDF>
      <cc:Work
         rdf:about="">
        <dc:title>Sinovac logo</dc:title>
        <dc:date>14 oct 2021</dc:date>
        <cc:license
           rdf:resource="http://scripts.sil.org/OFL" />
      </cc:Work>
      <cc:License
         rdf:about="http://scripts.sil.org/OFL">
        <cc:permits
           rdf:resource="http://scripts.sil.org/pub/OFL/Reproduction" />
        <cc:permits
           rdf:resource="http://scripts.sil.org/pub/OFL/Distribution" />
        <cc:permits
           rdf:resource="http://scripts.sil.org/pub/OFL/Embedding" />
        <cc:permits
           rdf:resource="http://scripts.sil.org/pub/OFL/DerivativeWorks" />
        <cc:requires
           rdf:resource="http://scripts.sil.org/pub/OFL/Notice" />
        <cc:requires
           rdf:resource="http://scripts.sil.org/pub/OFL/Attribution" />
        <cc:requires
           rdf:resource="http://scripts.sil.org/pub/OFL/ShareAlike" />
        <cc:requires
           rdf:resource="http://scripts.sil.org/pub/OFL/DerivativeRenaming" />
        <cc:requires
           rdf:resource="http://scripts.sil.org/pub/OFL/BundlingWhenSelling" />
      </cc:License>
    </rdf:RDF>
  </metadata>
  <g
     id="g126"
     transform="matrix(0.50794853,0,0,0.50794853,-21.821505,-1.0331417)">
    <g
       id="g106">
      <g
         id="g26" />
      <g
         id="g104" />
    </g>
    <g
       id="g124">
      <g
         id="g122">
        <polygon
           class="st0"
           points="80.8,34.4 80.8,30.7 80.8,6.8 80.8,3.1 72.8,3.1 72.8,6.8 72.8,30.7 72.8,34.4 "
           id="polygon108" />
        <path
           class="st0"
           d="m 150.7,18.8 c 0,5.1 -1.4,9.1 -4.1,12 -2.8,2.9 -6.6,4.3 -11.5,4.3 -4.9,0 -8.8,-1.4 -11.5,-4.3 -2.8,-2.9 -4.1,-6.9 -4.1,-12 0,-5.2 1.4,-9.2 4.1,-12.1 2.7,-2.9 6.6,-4.3 11.6,-4.3 5,0 8.8,1.4 11.6,4.3 2.6,2.8 3.9,6.9 3.9,12.1 m -7.6,0 c 0,-3.3 -0.7,-5.9 -2.1,-7.8 -1.4,-1.9 -3.4,-2.9 -5.9,-2.9 -2.6,0 -4.5,1 -5.9,2.9 -1.4,1.9 -2.1,4.5 -2.1,7.8 0,3.3 0.7,5.8 2.1,7.8 1.4,1.9 3.4,2.9 5.9,2.9 2.5,0 4.5,-1 5.9,-2.9 1.4,-2 2.1,-4.6 2.1,-7.8"
           id="path110" />
        <polygon
           class="st1"
           points="168,25.6 175.4,3.1 183.4,3.1 172.7,34.4 163.4,34.4 152.7,3.1 160.7,3.1 "
           id="polygon112"
           style="fill:#d6000f;fill-opacity:1" />
        <path
           class="st0"
           d="m 44.1,33.9 v -6.2 c 3.5,1.1 6.6,1.6 9.3,1.6 3.8,0 5.6,-1 5.6,-3 0,-0.7 -0.3,-1.4 -0.8,-1.9 -0.6,-0.5 -2,-1.3 -4.3,-2.2 -4.1,-1.7 -6.8,-3.2 -8.1,-4.4 -1.6,-1.6 -2.4,-3.6 -2.4,-6 0,-3.1 1.2,-5.5 3.6,-7.1 2.3,-1.6 5.4,-2.4 9.2,-2.4 2.1,0 5.5,0.3 9.3,1.1 v 5.5 c -3,-0.8 -5.9,-1.3 -8.4,-1.3 -3.5,0 -5.3,1 -5.3,2.9 0,0.7 0.4,1.3 1.1,1.8 0.6,0.4 2.2,1.2 4.9,2.4 3.8,1.7 6.4,3.2 7.7,4.4 1.5,1.5 2.3,3.4 2.3,5.8 0,3.4 -1.5,6 -4.4,7.8 -2.4,1.5 -5.5,2.2 -9.3,2.2 -3.5,0.1 -6.7,-0.2 -10,-1 z"
           id="path114" />
        <polygon
           class="st0"
           points="86.8,34.4 86.8,3.1 96.8,3.1 107.9,24 107.9,3.1 114.1,3.1 114.1,34.4 104.7,34.4 93,13.1 93,34.4 "
           id="polygon116" />
        <polygon
           class="st1"
           points="196,11.9 188.7,34.4 180.7,34.4 191.4,3.1 200.7,3.1 211.4,34.4 203.4,34.4 "
           id="polygon118"
           style="fill:#d6000f;fill-opacity:1" />
        <path
           class="st1"
           d="m 238.7,28.3 c -2.4,0.7 -6.1,1.1 -7.5,1.1 -3.3,0 -5.9,-1 -7.8,-2.9 -2,-1.9 -2.9,-4.5 -2.9,-7.7 0,-3.2 1,-5.7 2.9,-7.7 1.9,-2 4.4,-3 7.6,-3 1.3,0 4.3,0.2 7.8,1.4 V 3.8 C 238,3.5 236.9,3.2 235.7,3 c -1.5,-0.3 -3.2,-0.5 -5.1,-0.5 -5.4,0 -9.7,1.5 -12.9,4.5 -3.2,3 -4.8,7 -4.8,12.1 0,5 1.6,9 4.8,11.8 3.2,2.9 7.5,4.3 13.1,4.3 1.7,0 3.3,-0.1 4.8,-0.4 1.2,-0.2 2.3,-0.4 3.4,-0.7 v -5.8 z"
           id="path120"
           style="fill:#d6000f;fill-opacity:1" />
      </g>
    </g>
  </g>
</svg>
